<?xml version="1.0" encoding="UTF-8" standalone="no"?>
<svg
   xmlns:dc="http://purl.org/dc/elements/1.1/"
   xmlns:cc="http://creativecommons.org/ns#"
   xmlns:rdf="http://www.w3.org/1999/02/22-rdf-syntax-ns#"
   xmlns:svg="http://www.w3.org/2000/svg"
   xmlns="http://www.w3.org/2000/svg"
   xmlns:sodipodi="http://sodipodi.sourceforge.net/DTD/sodipodi-0.dtd"
   xmlns:inkscape="http://www.inkscape.org/namespaces/inkscape"
   sodipodi:docname="contato.svg"
   inkscape:version="1.0 (4035a4fb49, 2020-05-01)"
   id="svg8"
   version="1.1"
   viewBox="0 0 9.9724293 9.934577"
   height="9.934577mm"
   width="9.9724293mm">
  <defs
     id="defs2">
    <style
       id="style833">
      .cls-1 {
        fill: #9fa8aa;
        fill-rule: evenodd;
      }
    </style>
  </defs>
  <sodipodi:namedview
     inkscape:window-maximized="1"
     inkscape:window-y="-8"
     inkscape:window-x="-8"
     inkscape:window-height="705"
     inkscape:window-width="1366"
     fit-margin-bottom="0"
     fit-margin-right="0"
     fit-margin-left="0"
     fit-margin-top="0"
     showgrid="false"
     inkscape:document-rotation="0"
     inkscape:current-layer="layer1"
     inkscape:document-units="mm"
     inkscape:cy="-7.6015374"
     inkscape:cx="-48.020744"
     inkscape:zoom="1.8982902"
     inkscape:pageshadow="2"
     inkscape:pageopacity="0.0"
     borderopacity="1.0"
     bordercolor="#666666"
     pagecolor="#ffffff"
     id="base" />
  <metadata
     id="metadata5">
    <rdf:RDF>
      <cc:Work
         rdf:about="">
        <dc:format>image/svg+xml</dc:format>
        <dc:type
           rdf:resource="http://purl.org/dc/dcmitype/StillImage" />
        <dc:title></dc:title>
      </cc:Work>
    </rdf:RDF>
  </metadata>
  <g
     transform="translate(-106.1201,-74.025566)"
     id="layer1"
     inkscape:groupmode="layer"
     inkscape:label="Layer 1">
    <g
       style="fill:#9fa8aa;fill-opacity:1"
       transform="matrix(0.26935367,0,0,0.26935367,79.217531,57.328024)"
       id="g870">
      <path
         style="fill:#9fa8aa;fill-opacity:1;stroke:none;stroke-width:0.264583px;stroke-linecap:butt;stroke-linejoin:miter;stroke-opacity:1"
         d="m 128.48528,97.487594 c 0,0 -9.18707,4.427636 -16.44683,-3.20574 -6.76602,-7.11422 -4.04201,-16.93464 0.13939,-20.21007 1.63116,-1.27774 9.32557,-9.04645 20.07068,-0.27876 6.15644,5.02347 4.948,14.42581 3.41482,16.23775 0.20907,4.04201 2.01744,7.23768 0.6969,8.43247 -1.46355,1.32419 -7.87496,-0.97565 -7.87496,-0.97565 z"
         id="path864"
         sodipodi:nodetypes="cssscsc" />
      <path
         sodipodi:nodetypes="cscscsc"
         id="path866"
         d="m 101.19419,82.318584 c 0,0 -4.49733,-9.04769 3.13605,-16.30745 7.11422,-6.76602 17.28309,-3.83294 20.55852,0.34846 -8.83639,-0.53339 -13.06838,2.87963 -16.0143,6.07275 -6.06624,6.57528 -4.81692,15.27365 -3.42735,17.76876 -2.55644,0.53148 -4.2168,1.37479 -5.08919,0.41058 -1.32419,-1.46355 0.83627,-8.2931 0.83627,-8.2931 z"
         style="fill:#9fa8aa;fill-opacity:1;stroke:none;stroke-width:0.264583px;stroke-linecap:butt;stroke-linejoin:miter;stroke-opacity:1" />
    </g>
  </g>
</svg>
